<mxfile host="app.diagrams.net" modified="2021-01-04T04:06:50.850Z" agent="5.0 (X11; CrOS x86_64 13505.73.0) AppleWebKit/537.36 (KHTML, like Gecko) Chrome/87.0.4280.109 Safari/537.36" etag="0ZLEInMuxUsTTuwT3Td6" version="14.1.2" type="github">
  <diagram id="C5RBs43oDa-KdzZeNtuy" name="Page-1">
    <mxGraphModel dx="1695" dy="1643" grid="1" gridSize="10" guides="1" tooltips="1" connect="1" arrows="1" fold="1" page="1" pageScale="1" pageWidth="827" pageHeight="1169" math="0" shadow="0">
      <root>
        <mxCell id="WIyWlLk6GJQsqaUBKTNV-0" />
        <mxCell id="WIyWlLk6GJQsqaUBKTNV-1" parent="WIyWlLk6GJQsqaUBKTNV-0" />
        <mxCell id="WIyWlLk6GJQsqaUBKTNV-7" value="Plug in lamp" style="rounded=1;whiteSpace=wrap;html=1;fontSize=12;glass=0;strokeWidth=1;shadow=0;" parent="WIyWlLk6GJQsqaUBKTNV-1" vertex="1">
          <mxGeometry x="110" y="790" width="120" height="40" as="geometry" />
        </mxCell>
        <mxCell id="qS5wxZGcypzcKl70G0fS-5" value="" style="group" vertex="1" connectable="0" parent="WIyWlLk6GJQsqaUBKTNV-1">
          <mxGeometry x="80" y="950" width="280" height="180" as="geometry" />
        </mxCell>
        <mxCell id="WIyWlLk6GJQsqaUBKTNV-10" value="Bulb&lt;br&gt;burned out?" style="rhombus;whiteSpace=wrap;html=1;shadow=0;fontFamily=Helvetica;fontSize=12;align=center;strokeWidth=1;spacing=6;spacingTop=-4;" parent="qS5wxZGcypzcKl70G0fS-5" vertex="1">
          <mxGeometry x="10" width="100" height="80" as="geometry" />
        </mxCell>
        <mxCell id="WIyWlLk6GJQsqaUBKTNV-11" value="&lt;h2&gt;&lt;font face=&quot;Comic Sans MS&quot;&gt;Predictions&lt;/font&gt;&lt;/h2&gt;" style="rounded=1;whiteSpace=wrap;html=1;fontSize=12;glass=0;strokeWidth=1;shadow=0;" parent="qS5wxZGcypzcKl70G0fS-5" vertex="1">
          <mxGeometry y="140" width="120" height="40" as="geometry" />
        </mxCell>
        <mxCell id="WIyWlLk6GJQsqaUBKTNV-12" value="Replace Bulb" style="rounded=1;whiteSpace=wrap;html=1;fontSize=12;glass=0;strokeWidth=1;shadow=0;" parent="qS5wxZGcypzcKl70G0fS-5" vertex="1">
          <mxGeometry x="160" y="20" width="120" height="40" as="geometry" />
        </mxCell>
        <mxCell id="qS5wxZGcypzcKl70G0fS-21" value="" style="group" vertex="1" connectable="0" parent="WIyWlLk6GJQsqaUBKTNV-1">
          <mxGeometry x="-620.0044807324367" y="-20" width="520.0044807324367" height="630" as="geometry" />
        </mxCell>
        <mxCell id="qS5wxZGcypzcKl70G0fS-20" value="&lt;span style=&quot;color: rgba(0 , 0 , 0 , 0) ; font-family: monospace ; font-size: 0px&quot;&gt;%3CmxGraphModel%3E%3Croot%3E%3CmxCell%20id%3D%220%22%2F%3E%3CmxCell%20id%3D%221%22%20parent%3D%220%22%2F%3E%3CmxCell%20id%3D%222%22%20value%3D%22%22%20style%3D%22rounded%3D0%3Bhtml%3D1%3BjettySize%3Dauto%3BorthogonalLoop%3D1%3BfontSize%3D11%3BendArrow%3Dblock%3BendFill%3D0%3BendSize%3D8%3BstrokeWidth%3D1%3Bshadow%3D0%3BlabelBackgroundColor%3Dnone%3BedgeStyle%3DorthogonalEdgeStyle%3B%22%20edge%3D%221%22%20parent%3D%221%22%3E%3CmxGeometry%20relative%3D%221%22%20as%3D%22geometry%22%3E%3CmxPoint%20x%3D%22460%22%20y%3D%2280%22%20as%3D%22sourcePoint%22%2F%3E%3CmxPoint%20x%3D%22460%22%20y%3D%22130%22%20as%3D%22targetPoint%22%2F%3E%3C%2FmxGeometry%3E%3C%2FmxCell%3E%3C%2Froot%3E%3C%2FmxGraphModel%3E&lt;/span&gt;" style="rounded=1;whiteSpace=wrap;html=1;" vertex="1" parent="qS5wxZGcypzcKl70G0fS-21">
          <mxGeometry x="-39.99551926756327" y="210" width="560" height="420" as="geometry" />
        </mxCell>
        <mxCell id="qS5wxZGcypzcKl70G0fS-15" value="" style="group" vertex="1" connectable="0" parent="qS5wxZGcypzcKl70G0fS-21">
          <mxGeometry y="239.99813315460239" width="506.67448073243673" height="390.0018668453976" as="geometry" />
        </mxCell>
        <mxCell id="WIyWlLk6GJQsqaUBKTNV-6" value="&lt;h2&gt;&lt;font face=&quot;Comic Sans MS&quot;&gt;DATA manipulation&lt;/font&gt;&lt;/h2&gt;&lt;h2&gt;&lt;font face=&quot;Comic Sans MS&quot;&gt;&amp;nbsp;&amp;amp;&lt;/font&gt;&lt;/h2&gt;&lt;h2&gt;&lt;font face=&quot;Comic Sans MS&quot;&gt;DATA processing&lt;/font&gt;&lt;/h2&gt;" style="rhombus;whiteSpace=wrap;html=1;shadow=0;fontFamily=Helvetica;fontSize=12;align=center;strokeWidth=1;spacing=6;spacingTop=-4;" parent="qS5wxZGcypzcKl70G0fS-15" vertex="1">
          <mxGeometry x="25.60448073243674" y="11.701866845397632" width="420" height="320" as="geometry" />
        </mxCell>
        <mxCell id="qS5wxZGcypzcKl70G0fS-2" value="&lt;h4&gt;&lt;font face=&quot;Comic Sans MS&quot;&gt;images generation&lt;/font&gt;&lt;/h4&gt;" style="shape=process;whiteSpace=wrap;html=1;backgroundOutline=1;fontStyle=1;rotation=-35;" vertex="1" parent="qS5wxZGcypzcKl70G0fS-15">
          <mxGeometry x="25.60448073243674" y="31.701866845397632" width="120" height="30" as="geometry" />
        </mxCell>
        <mxCell id="qS5wxZGcypzcKl70G0fS-7" value="&lt;h4&gt;&lt;font face=&quot;Comic Sans MS&quot;&gt;tesseract&lt;/font&gt;&lt;/h4&gt;" style="shape=process;whiteSpace=wrap;html=1;backgroundOutline=1;fontStyle=1;rotation=35;direction=west;" vertex="1" parent="qS5wxZGcypzcKl70G0fS-15">
          <mxGeometry x="335.60448073243674" y="31.701866845397632" width="120" height="30" as="geometry" />
        </mxCell>
        <mxCell id="qS5wxZGcypzcKl70G0fS-8" value="&lt;h4&gt;&lt;font face=&quot;Comic Sans MS&quot;&gt;vgg annotation format&lt;/font&gt;&lt;/h4&gt;" style="shape=process;whiteSpace=wrap;html=1;backgroundOutline=1;fontStyle=1;rotation=-140;" vertex="1" parent="qS5wxZGcypzcKl70G0fS-15">
          <mxGeometry x="-4.395519267563259" y="291.7018668453976" width="120" height="30" as="geometry" />
        </mxCell>
        <mxCell id="qS5wxZGcypzcKl70G0fS-9" value="&lt;h4&gt;&lt;font face=&quot;Comic Sans MS&quot;&gt;YOLO format&lt;/font&gt;&lt;/h4&gt;" style="shape=process;whiteSpace=wrap;html=1;backgroundOutline=1;fontStyle=1;rotation=-220;" vertex="1" parent="qS5wxZGcypzcKl70G0fS-15">
          <mxGeometry x="335.60448073243674" y="281.7018668453976" width="120" height="30" as="geometry" />
        </mxCell>
        <mxCell id="qS5wxZGcypzcKl70G0fS-10" value="" style="endArrow=classic;html=1;" edge="1" parent="qS5wxZGcypzcKl70G0fS-15">
          <mxGeometry width="50" height="50" relative="1" as="geometry">
            <mxPoint x="65.60448073243674" y="291.7018668453976" as="sourcePoint" />
            <mxPoint x="115.60448073243674" y="241.70186684539763" as="targetPoint" />
          </mxGeometry>
        </mxCell>
        <mxCell id="qS5wxZGcypzcKl70G0fS-12" value="" style="endArrow=classic;html=1;exitX=1;exitY=1;exitDx=0;exitDy=0;" edge="1" parent="qS5wxZGcypzcKl70G0fS-15" source="WIyWlLk6GJQsqaUBKTNV-6">
          <mxGeometry width="50" height="50" relative="1" as="geometry">
            <mxPoint x="295.60448073243674" y="291.7018668453976" as="sourcePoint" />
            <mxPoint x="375.60448073243674" y="291.7018668453976" as="targetPoint" />
          </mxGeometry>
        </mxCell>
        <mxCell id="qS5wxZGcypzcKl70G0fS-13" value="" style="endArrow=classic;html=1;exitX=0.5;exitY=1;exitDx=0;exitDy=0;" edge="1" parent="qS5wxZGcypzcKl70G0fS-15" source="qS5wxZGcypzcKl70G0fS-2">
          <mxGeometry width="50" height="50" relative="1" as="geometry">
            <mxPoint x="75.60448073243674" y="141.70186684539763" as="sourcePoint" />
            <mxPoint x="125.60448073243674" y="91.70186684539763" as="targetPoint" />
          </mxGeometry>
        </mxCell>
        <mxCell id="qS5wxZGcypzcKl70G0fS-14" value="" style="endArrow=classic;html=1;" edge="1" parent="qS5wxZGcypzcKl70G0fS-15">
          <mxGeometry width="50" height="50" relative="1" as="geometry">
            <mxPoint x="385.60448073243674" y="61.70186684539763" as="sourcePoint" />
            <mxPoint x="355.60448073243674" y="101.70186684539763" as="targetPoint" />
          </mxGeometry>
        </mxCell>
        <mxCell id="qS5wxZGcypzcKl70G0fS-17" value="" style="group" vertex="1" connectable="0" parent="qS5wxZGcypzcKl70G0fS-21">
          <mxGeometry x="170.00448073243672" width="120" height="120" as="geometry" />
        </mxCell>
        <mxCell id="WIyWlLk6GJQsqaUBKTNV-2" value="" style="rounded=0;html=1;jettySize=auto;orthogonalLoop=1;fontSize=11;endArrow=block;endFill=0;endSize=8;strokeWidth=1;shadow=0;labelBackgroundColor=none;edgeStyle=orthogonalEdgeStyle;" parent="qS5wxZGcypzcKl70G0fS-17" source="WIyWlLk6GJQsqaUBKTNV-3" edge="1">
          <mxGeometry relative="1" as="geometry">
            <mxPoint x="60" y="90" as="targetPoint" />
          </mxGeometry>
        </mxCell>
        <mxCell id="WIyWlLk6GJQsqaUBKTNV-3" value="&lt;h2&gt;&lt;font face=&quot;Comic Sans MS&quot;&gt;Raw DATA&lt;/font&gt;&amp;nbsp;&lt;/h2&gt;" style="rounded=1;whiteSpace=wrap;html=1;fontSize=12;glass=0;strokeWidth=1;shadow=0;" parent="qS5wxZGcypzcKl70G0fS-17" vertex="1">
          <mxGeometry width="120" height="40" as="geometry" />
        </mxCell>
        <mxCell id="qS5wxZGcypzcKl70G0fS-6" value="&lt;h4&gt;&lt;font face=&quot;Comic Sans MS&quot;&gt;Preprocessing&lt;/font&gt;&lt;/h4&gt;" style="shape=process;whiteSpace=wrap;html=1;backgroundOutline=1;fontStyle=1" vertex="1" parent="qS5wxZGcypzcKl70G0fS-17">
          <mxGeometry y="90" width="120" height="30" as="geometry" />
        </mxCell>
        <mxCell id="qS5wxZGcypzcKl70G0fS-19" value="" style="rounded=0;html=1;jettySize=auto;orthogonalLoop=1;fontSize=11;endArrow=block;endFill=0;endSize=8;strokeWidth=1;shadow=0;labelBackgroundColor=none;edgeStyle=orthogonalEdgeStyle;" edge="1" parent="qS5wxZGcypzcKl70G0fS-21">
          <mxGeometry relative="1" as="geometry">
            <mxPoint x="229.50448073243672" y="120" as="sourcePoint" />
            <mxPoint x="230.00448073243672" y="210" as="targetPoint" />
            <Array as="points">
              <mxPoint x="230.00448073243672" y="150" />
              <mxPoint x="230.00448073243672" y="150" />
            </Array>
          </mxGeometry>
        </mxCell>
        <mxCell id="qS5wxZGcypzcKl70G0fS-24" value="Bulb&lt;br&gt;burned out?" style="rhombus;whiteSpace=wrap;html=1;shadow=0;fontFamily=Helvetica;fontSize=12;align=center;strokeWidth=1;spacing=6;spacingTop=-4;" vertex="1" parent="WIyWlLk6GJQsqaUBKTNV-1">
          <mxGeometry x="640" y="850" width="100" height="80" as="geometry" />
        </mxCell>
      </root>
    </mxGraphModel>
  </diagram>
</mxfile>
